<svg width="15" height="16" viewBox="0 0 15 16" fill="none" xmlns="http://www.w3.org/2000/svg">
<path fill-rule="evenodd" clip-rule="evenodd" d="M13.9878 0.0247928C14.4673 0.086557 14.8317 0.486631 14.954 1.0859C15.0148 1.38335 15.0156 14.5869 14.9549 14.8908C14.9325 15.0027 14.8601 15.209 14.7939 15.3493C14.587 15.7876 14.2718 15.9946 13.81 15.9953C13.5384 15.9957 13.376 15.9549 13.0985 15.8164C12.7939 15.6645 3.95161 9.46628 3.71097 9.23604C3.47637 9.01152 3.30332 8.73184 3.2127 8.43079C3.15993 8.25542 3.151 8.16363 3.16387 7.92991C3.18906 7.47311 3.33513 7.16135 3.69398 6.79853C3.82333 6.66774 5.22142 5.67322 8.29833 3.52331C10.7286 1.82528 12.7931 0.386988 12.8863 0.327133C13.2475 0.0951031 13.6582 -0.0176563 13.9878 0.0247928ZM1.37842 0.0219128C1.65058 0.091597 1.90083 0.299679 2.01214 0.548864C2.059 0.653798 2.06304 1.24361 2.06304 8.00376V15.3447L1.99114 15.4856C1.88943 15.6848 1.72587 15.8459 1.54287 15.9272C1.41041 15.9861 1.3274 15.9975 1.01612 15.9996C0.67021 16.0019 0.635292 15.9964 0.469049 15.9134C0.268473 15.8133 0.100227 15.6168 0.0384893 15.4106C0.00815964 15.3094 0 13.7299 0 7.97246V0.662813L0.0644169 0.521942C0.159963 0.312984 0.275185 0.190802 0.466524 0.0956353C0.612507 0.0230398 0.683666 0.00917181 0.950075 0.00137694C1.12189 -0.00366311 1.31462 0.00557177 1.37842 0.0219128Z" fill="white"/>
</svg>
