<svg width="15" height="16" viewBox="0 0 15 16" fill="none" xmlns="http://www.w3.org/2000/svg">
<path fill-rule="evenodd" clip-rule="evenodd" d="M1.01224 0.0247928C0.532662 0.086557 0.168336 0.486631 0.0459701 1.0859C-0.0147818 1.38335 -0.0155823 14.5869 0.0451387 14.8908C0.0674934 15.0027 0.139946 15.209 0.206117 15.3493C0.412975 15.7876 0.728158 15.9946 1.18997 15.9953C1.46161 15.9957 1.62398 15.9549 1.9015 15.8164C2.20612 15.6645 11.0484 9.46628 11.289 9.23604C11.5236 9.01152 11.6967 8.73184 11.7873 8.43079C11.8401 8.25542 11.849 8.16363 11.8361 7.92991C11.8109 7.47311 11.6649 7.16135 11.306 6.79853C11.1767 6.66774 9.77858 5.67322 6.70167 3.52331C4.27144 1.82528 2.20686 0.386988 2.11372 0.327133C1.75253 0.0951031 1.34177 -0.0176563 1.01224 0.0247928ZM13.6216 0.0219128C13.3494 0.091597 13.0992 0.299679 12.9879 0.548864C12.941 0.653798 12.937 1.24361 12.937 8.00376V15.3447L13.0089 15.4856C13.1106 15.6848 13.2741 15.8459 13.4571 15.9272C13.5896 15.9861 13.6726 15.9975 13.9839 15.9996C14.3298 16.0019 14.3647 15.9964 14.531 15.9134C14.7315 15.8133 14.8998 15.6168 14.9615 15.4106C14.9918 15.3094 15 13.7299 15 7.97246V0.662813L14.9356 0.521942C14.84 0.312984 14.7248 0.190802 14.5335 0.0956353C14.3875 0.0230398 14.3163 0.00917181 14.0499 0.00137694C13.8781 -0.00366311 13.6854 0.00557177 13.6216 0.0219128Z" fill="white"/>
</svg>
