<svg width="17" height="15" viewBox="0 0 17 15" fill="none" xmlns="http://www.w3.org/2000/svg">
<path fill-rule="evenodd" clip-rule="evenodd" d="M13.1665 0.113704C12.8149 0.306019 12.6224 0.684986 12.6624 1.10627C12.689 1.38589 12.7595 1.51666 13.1099 1.93651C13.6825 2.62258 14.0191 3.15406 14.3741 3.93249C14.8906 5.06549 15.129 6.19246 15.129 7.50201C15.129 8.81157 14.8906 9.93854 14.3741 11.0715C14.0191 11.85 13.6825 12.3814 13.1099 13.0675C12.7595 13.4874 12.689 13.6181 12.6624 13.8978C12.6056 14.4961 13.0313 15 13.5936 15C13.923 15 14.1297 14.8752 14.4695 14.4709C15.8366 12.8448 16.625 11.0765 16.9275 8.95774C17.0242 8.28073 17.0242 6.7233 16.9275 6.04629C16.7468 4.78048 16.3339 3.47855 15.7946 2.47405C15.2491 1.4578 14.3788 0.304304 14.0068 0.104371C13.7419 -0.0379712 13.4377 -0.0345811 13.1665 0.113704ZM7.32528 0.397869C7.07235 0.487287 6.84583 0.709235 5.18046 2.4993L3.38677 4.42728L2.05537 4.43928C0.85426 4.45013 0.708546 4.45855 0.566493 4.52539C0.369445 4.61808 0.104718 4.93088 0.0467655 5.13951C-0.0155885 5.36393 -0.0155885 9.6401 0.0467655 9.86452C0.104718 10.0731 0.369445 10.3859 0.566493 10.4786C0.708546 10.5455 0.85426 10.5539 2.05537 10.5647L3.38677 10.5767L5.18046 12.5049C6.38749 13.8024 7.0286 14.4634 7.14058 14.5259C7.35616 14.6462 7.75935 14.656 7.95422 14.5458C8.13396 14.4442 8.31584 14.2516 8.41052 14.0628L8.49048 13.9032V7.50201C8.49048 1.33556 8.48796 1.0957 8.42161 0.961215C8.32457 0.764473 8.14542 0.569167 7.97537 0.474684C7.81682 0.386622 7.47225 0.345902 7.32528 0.397869ZM10.5972 2.93905C10.2297 3.07976 9.98867 3.45797 9.98949 3.89261C9.99004 4.1891 10.0818 4.41986 10.2987 4.66993C11.4133 5.95492 11.6682 7.7847 10.9487 9.33663C10.7965 9.66486 10.5468 10.0481 10.2987 10.3341C10.0814 10.5846 9.99012 10.8147 9.98912 11.1142C9.98638 11.9297 10.8489 12.4078 11.4606 11.9299C11.6465 11.7847 12.067 11.2458 12.317 10.8322C13.5272 8.83103 13.5342 6.19246 12.3348 4.2021C12.0865 3.79019 11.6664 3.24052 11.4871 3.093C11.2405 2.89019 10.8853 2.82873 10.5972 2.93905Z" fill="white" fill-opacity="0.38"/>
</svg>
