<svg width="22" height="26" viewBox="0 0 22 26" fill="none" xmlns="http://www.w3.org/2000/svg">
<path fill-rule="evenodd" clip-rule="evenodd" d="M10.8213 0.0109254C10.1785 0.174387 0.47091 3.10653 0.359123 3.17098C0.275922 3.21896 0.161073 3.33749 0.103904 3.43432C0.000998948 3.60876 2.91247e-05 3.66741 2.91247e-05 9.58268C2.91247e-05 16.0726 -0.00900572 15.8492 0.291184 16.8002C0.992987 19.024 3.16149 21.3933 6.49119 23.5744C7.52493 24.2516 8.25797 24.6821 9.34107 25.2483C10.35 25.7756 10.8451 26 11 26C11.1549 26 11.65 25.7756 12.6589 25.2483C13.742 24.6821 14.4751 24.2516 15.5088 23.5744C18.8385 21.3933 21.007 19.024 21.7088 16.8002C22.009 15.8492 22 16.0726 22 9.58268C22 3.66741 21.999 3.60876 21.8961 3.43432C21.8389 3.33749 21.7241 3.21896 21.6409 3.17098C21.475 3.07527 11.3911 0.0509267 11.1021 0.010163C11.0038 -0.00366214 10.8775 -0.00335718 10.8213 0.0109254Z" fill="#FF409C"/>
</svg>
