<svg width="23" height="25" viewBox="0 0 23 25" fill="none" xmlns="http://www.w3.org/2000/svg">
<path fill-rule="evenodd" clip-rule="evenodd" d="M15.2155 1.98981C10.9441 3.08418 7.38959 3.99439 7.31652 4.01259L7.18361 4.04557L7.17136 10.6956L7.15907 17.3456L6.86875 17.125C6.22361 16.6348 5.4049 16.3389 4.56114 16.2909C3.36801 16.223 2.24137 16.6302 1.36847 17.4446C0.78251 17.9913 0.328109 18.7639 0.11332 19.5785C-0.0358079 20.1442 -0.0380337 21.0813 0.108337 21.6726C0.404803 22.8703 1.15896 23.8727 2.20823 24.4637C2.87785 24.8409 3.49745 24.9994 4.30425 25C6.26532 25.0014 7.86939 23.7785 8.47737 21.8185L8.61068 21.3888L8.62408 15.652C8.63148 12.4967 8.6506 9.91518 8.66652 9.91518C8.68244 9.91518 11.5736 9.17759 15.0913 8.27609C18.6089 7.37459 21.5022 6.637 21.5206 6.637C21.5391 6.637 21.5542 8.25524 21.5542 10.2331V13.8292L21.2517 13.6038C20.8585 13.3107 20.2953 13.026 19.8517 12.8961C19.344 12.7475 18.3706 12.7126 17.8245 12.8235C16.2088 13.1516 14.9239 14.3753 14.482 16.0067C14.3299 16.5683 14.3299 17.6469 14.482 18.2085C14.7525 19.2074 15.4258 20.1755 16.2223 20.7113C16.5594 20.938 17.1985 21.2377 17.5622 21.3396C18.012 21.4657 19.0281 21.4927 19.5258 21.3919C20.3003 21.235 21.0117 20.8604 21.61 20.2944C22.2437 19.6949 22.613 19.0656 22.8769 18.1351L22.981 17.7681L22.9944 10.062C23.0017 5.82357 23.0019 1.82575 22.9947 1.17789L22.9816 0L15.2155 1.98981Z" fill="#FF409C"/>
</svg>
