<svg width="19" height="23" viewBox="0 0 19 23" fill="none" xmlns="http://www.w3.org/2000/svg">
<path d="M5.02941 0H2.79412C1.25097 0 0 1.35493 0 3.02632V19.9737C0 21.6451 1.25097 23 2.79412 23H5.02941C6.57256 23 7.82353 21.6451 7.82353 19.9737V3.02632C7.82353 1.35493 6.57256 0 5.02941 0Z" fill="white"/>
<path d="M16.2059 0H13.9706C12.4274 0 11.1765 1.35493 11.1765 3.02632V19.9737C11.1765 21.6451 12.4274 23 13.9706 23H16.2059C17.749 23 19 21.6451 19 19.9737V3.02632C19 1.35493 17.749 0 16.2059 0Z" fill="white"/>
</svg>
