<svg width="19" height="23" viewBox="0 0 19 23" fill="none" xmlns="http://www.w3.org/2000/svg">
<path fill-rule="evenodd" clip-rule="evenodd" d="M1.51818 0.0294806C1.27644 0.0849435 0.91734 0.267885 0.724484 0.433914C0.501327 0.625988 0.274651 1.01747 0.126667 1.46657L0 1.85089V11.4995V21.1482L0.126667 21.5325C0.407196 22.3837 0.855538 22.8297 1.57634 22.9745C2.00642 23.0608 2.63653 22.924 3.17855 22.6264C3.50362 22.448 17.7296 13.5781 17.9444 13.4199C18.2922 13.1638 18.6687 12.705 18.84 12.3284C18.9953 11.9868 19 11.9626 19 11.4995C19 11.0365 18.9953 11.0123 18.84 10.6707C18.6687 10.2941 18.2922 9.8353 17.9444 9.57922C17.7296 9.42101 3.50362 0.551093 3.17855 0.372694C2.64394 0.0791857 1.93788 -0.066781 1.51818 0.0294806Z" fill="white"/>
</svg>
