<svg width="17" height="15" viewBox="0 0 17 15" fill="none" xmlns="http://www.w3.org/2000/svg">
<path fill-rule="evenodd" clip-rule="evenodd" d="M11.3253 0.397868C11.0723 0.487286 10.8458 0.709234 9.18046 2.4993L7.38677 4.42728L6.05537 4.43928C4.85426 4.45013 4.70855 4.45855 4.56649 4.52539C4.36945 4.61808 4.10472 4.93088 4.04677 5.13951C3.98441 5.36393 3.98441 9.64009 4.04677 9.86452C4.10472 10.0731 4.36945 10.3859 4.56649 10.4786C4.70855 10.5455 4.85426 10.5539 6.05537 10.5647L7.38677 10.5767L9.18046 12.5049C10.3875 13.8024 11.0286 14.4634 11.1406 14.5259C11.3562 14.6462 11.7594 14.656 11.9542 14.5458C12.134 14.4442 12.3158 14.2516 12.4105 14.0628L12.4905 13.9032V7.50201C12.4905 1.33556 12.488 1.0957 12.4216 0.961214C12.3246 0.764472 12.1454 0.569165 11.9754 0.474683C11.8168 0.386621 11.4723 0.345901 11.3253 0.397868Z" fill="white" fill-opacity="0.38"/>
</svg>
